<svg width="16" height="16" viewBox="0 0 16 16" fill="none" xmlns="http://www.w3.org/2000/svg">
<path d="M3.05127 8.72922L2.47022 8.14817C2.41173 8.09005 2.36531 8.02094 2.33363 7.94481C2.30195 7.86867 2.28564 7.78703 2.28564 7.70457C2.28564 7.62211 2.30195 7.54047 2.33363 7.46433C2.36531 7.3882 2.41173 7.31909 2.47022 7.26097L7.55503 2.17356C7.61314 2.11507 7.68226 2.06865 7.75839 2.03697C7.83452 2.00529 7.91617 1.98898 7.99863 1.98898C8.08108 1.98898 8.16273 2.00529 8.23886 2.03697C8.31499 2.06865 8.38411 2.11507 8.44223 2.17356L13.5296 7.26097C13.5881 7.31909 13.6346 7.3882 13.6662 7.46433C13.6979 7.54047 13.7142 7.62211 13.7142 7.70457C13.7142 7.78703 13.6979 7.86867 13.6662 7.94481C13.6346 8.02094 13.5881 8.09005 13.5296 8.14817L12.9486 8.72922C12.8894 8.78822 12.819 8.83482 12.7416 8.86629C12.6641 8.89776 12.5812 8.91348 12.4976 8.9125C12.414 8.91153 12.3315 8.8939 12.2548 8.86064C12.1781 8.82738 12.1088 8.77916 12.051 8.71879L9.04672 5.56538V13.0864C9.0469 13.1689 9.03077 13.2507 8.99927 13.3269C8.96778 13.4032 8.92153 13.4725 8.86319 13.5308C8.80484 13.5892 8.73555 13.6354 8.65929 13.6669C8.58302 13.6984 8.50129 13.7145 8.41878 13.7144H7.58108C7.49857 13.7145 7.41684 13.6984 7.34057 13.6669C7.26431 13.6354 7.19502 13.5892 7.13667 13.5308C7.07833 13.4725 7.03208 13.4032 7.00059 13.3269C6.96909 13.2507 6.95296 13.1689 6.95313 13.0864L6.95313 5.56538L3.94694 8.71879C3.88947 8.77942 3.82042 8.82789 3.74387 8.86133C3.66732 8.89477 3.58484 8.9125 3.50131 8.91347C3.41778 8.91445 3.33491 8.89864 3.2576 8.86699C3.1803 8.83534 3.11013 8.78849 3.05127 8.72922Z" fill="#ffffff"/>
</svg>
