<svg width="16" height="16" viewBox="0 0 16 16" fill="none" xmlns="http://www.w3.org/2000/svg">
<path d="M12.9487 7.27078L13.5298 7.85183C13.5883 7.90995 13.6347 7.97906 13.6664 8.05519C13.698 8.13133 13.7144 8.21297 13.7144 8.29543C13.7144 8.37789 13.698 8.45953 13.6664 8.53567C13.6347 8.6118 13.5883 8.68091 13.5298 8.73903L8.44497 13.8264C8.38686 13.8849 8.31774 13.9314 8.24161 13.963C8.16548 13.9947 8.08383 14.011 8.00137 14.011C7.91892 14.011 7.83727 13.9947 7.76114 13.963C7.68501 13.9314 7.61589 13.8849 7.55777 13.8264L2.47037 8.73903C2.41187 8.68091 2.36545 8.6118 2.33377 8.53567C2.30209 8.45953 2.28578 8.37789 2.28578 8.29543C2.28578 8.21297 2.30209 8.13133 2.33377 8.05519C2.36545 7.97906 2.41187 7.90995 2.47037 7.85183L3.05141 7.27078C3.11062 7.21178 3.18101 7.16518 3.25845 7.13371C3.33589 7.10224 3.41883 7.08652 3.50241 7.0875C3.586 7.08847 3.66855 7.1061 3.74524 7.13936C3.82192 7.17262 3.89121 7.22084 3.94904 7.28121L6.95328 10.4346L6.95328 2.91359C6.9531 2.83108 6.96923 2.74935 7.00073 2.67308C7.03222 2.59682 7.07847 2.52753 7.13681 2.46918C7.19516 2.41084 7.26445 2.36459 7.34071 2.3331C7.41698 2.3016 7.49871 2.28547 7.58122 2.28565H8.41892C8.50143 2.28547 8.58316 2.3016 8.65943 2.3331C8.73569 2.36459 8.80498 2.41084 8.86333 2.46918C8.92167 2.52753 8.96792 2.59682 8.99941 2.67308C9.03091 2.74935 9.04704 2.83108 9.04687 2.91359V10.4346L12.0531 7.28121C12.1105 7.22058 12.1796 7.17211 12.2561 7.13867C12.3327 7.10523 12.4152 7.0875 12.4987 7.08653C12.5822 7.08555 12.6651 7.10136 12.7424 7.13301C12.8197 7.16466 12.8899 7.21151 12.9487 7.27078Z" fill="#ffffff"/>
</svg>
