<svg width="21" height="22" viewBox="0 0 21 22" fill="none" xmlns="http://www.w3.org/2000/svg">
<path d="M2.66992 8.138L2.16151 7.62959C2.11032 7.57873 2.06971 7.51826 2.04199 7.45164C2.01427 7.38503 2 7.31359 2 7.24144C2 7.16929 2.01427 7.09785 2.04199 7.03123C2.06971 6.96462 2.11032 6.90414 2.16151 6.85329L6.61071 2.40181C6.66156 2.35062 6.72204 2.31 6.78865 2.28229C6.85527 2.25457 6.92671 2.2403 6.99886 2.2403C7.07101 2.2403 7.14245 2.25457 7.20906 2.28229C7.27568 2.31 7.33616 2.35062 7.38701 2.40181L11.8385 6.85329C11.8897 6.90414 11.9303 6.96462 11.958 7.03123C11.9857 7.09785 12 7.16929 12 7.24144C12 7.31359 11.9857 7.38503 11.958 7.45164C11.9303 7.51826 11.8897 7.57873 11.8385 7.62959L11.3301 8.138C11.2783 8.18963 11.2167 8.23041 11.1489 8.25795C11.0812 8.28548 11.0086 8.29923 10.9355 8.29838C10.8623 8.29753 10.7901 8.2821 10.723 8.253C10.6559 8.2239 10.5953 8.1817 10.5447 8.12888L7.91594 5.36965V11.9505C7.91609 12.0227 7.90199 12.0943 7.87443 12.161C7.84687 12.2277 7.8064 12.2884 7.75535 12.3394C7.7043 12.3905 7.64367 12.4309 7.57694 12.4585C7.51021 12.486 7.43869 12.5001 7.36649 12.5H6.63351C6.56131 12.5001 6.48979 12.486 6.42306 12.4585C6.35633 12.4309 6.2957 12.3905 6.24465 12.3394C6.1936 12.2884 6.15313 12.2277 6.12557 12.161C6.09801 12.0943 6.0839 12.0227 6.08405 11.9505V5.36965L3.45363 8.12888C3.40335 8.18193 3.34293 8.22434 3.27595 8.2536C3.20897 8.28286 3.13679 8.29838 3.06371 8.29923C2.99062 8.30008 2.91811 8.28625 2.85046 8.25855C2.78282 8.23086 2.72143 8.18987 2.66992 8.138Z" fill="#ffffff"/>
<path d="M18.3301 13.862L18.8385 14.3704C18.8897 14.4213 18.9303 14.4817 18.958 14.5484C18.9857 14.615 19 14.6864 19 14.7586C19 14.8307 18.9857 14.9022 18.958 14.9688C18.9303 15.0354 18.8897 15.0959 18.8385 15.1467L14.3893 19.5982C14.3384 19.6494 14.278 19.69 14.2113 19.7177C14.1447 19.7454 14.0733 19.7597 14.0011 19.7597C13.929 19.7597 13.8576 19.7454 13.7909 19.7177C13.7243 19.69 13.6638 19.6494 13.613 19.5982L9.16151 15.1467C9.11033 15.0959 9.06971 15.0354 9.04199 14.9688C9.01427 14.9022 9 14.8307 9 14.7586C9 14.6864 9.01427 14.615 9.04199 14.5484C9.06971 14.4817 9.11033 14.4213 9.16151 14.3704L9.66992 13.862C9.72173 13.8104 9.78332 13.7696 9.85108 13.7421C9.91884 13.7145 9.99141 13.7008 10.0645 13.7016C10.1377 13.7025 10.2099 13.7179 10.277 13.747C10.3441 13.7761 10.4047 13.8183 10.4553 13.8711L13.0841 16.6304V10.0495C13.0839 9.97726 13.098 9.90574 13.1256 9.83901C13.1531 9.77228 13.1936 9.71165 13.2447 9.6606C13.2957 9.60955 13.3563 9.56908 13.4231 9.54152C13.4898 9.51396 13.5613 9.49985 13.6335 9.5H14.3665C14.4387 9.49985 14.5102 9.51396 14.5769 9.54152C14.6437 9.56908 14.7043 9.60955 14.7554 9.6606C14.8064 9.71165 14.8469 9.77228 14.8744 9.83901C14.902 9.90574 14.9161 9.97726 14.9159 10.0495V16.6304L17.5464 13.8711C17.5967 13.8181 17.6571 13.7757 17.7241 13.7464C17.791 13.7171 17.8632 13.7016 17.9363 13.7008C18.0094 13.6999 18.0819 13.7138 18.1495 13.7414C18.2172 13.7691 18.2786 13.8101 18.3301 13.862Z" fill="#ffffff"/>
</svg>
