<svg width="18" height="14" viewBox="0 0 18 14" fill="none" xmlns="http://www.w3.org/2000/svg">
<path d="M2.14568 0.110982L3.45803 0.985881C3.75877 1.1882 3.8408 1.59558 3.64121 1.89632C3.44162 2.19707 3.03151 2.27909 2.73077 2.0795L1.41842 1.20461C1.11767 1.00229 1.03565 0.594911 1.23524 0.294164C1.43482 -0.00658225 1.84493 -0.088604 2.14568 0.110982ZM16.5815 1.20461L15.2692 2.0795C14.9684 2.28182 14.561 2.1998 14.3587 1.89632C14.1564 1.59284 14.2384 1.1882 14.5419 0.985881L15.8542 0.110982C16.155 -0.0913381 16.5624 -0.00931632 16.7647 0.294164C16.967 0.597645 16.885 1.00229 16.5815 1.20461ZM0.907151 4.37611H2.65695C3.02058 4.37611 3.31312 4.66866 3.31312 5.03229C3.31312 5.39592 3.02058 5.68846 2.65695 5.68846H0.907151C0.543521 5.68846 0.250977 5.39592 0.250977 5.03229C0.250977 4.66866 0.543521 4.37611 0.907151 4.37611ZM15.343 4.37611H17.0928C17.4564 4.37611 17.749 4.66866 17.749 5.03229C17.749 5.39592 17.4564 5.68846 17.0928 5.68846H15.343C14.9794 5.68846 14.6868 5.39592 14.6868 5.03229C14.6868 4.66866 14.9794 4.37611 15.343 4.37611ZM3.45803 9.07869L2.14568 9.95359C1.84493 10.1559 1.43756 10.0739 1.23524 9.77041C1.03292 9.46693 1.11494 9.06229 1.41842 8.85997L2.73077 7.98507C3.03151 7.78275 3.43889 7.86477 3.64121 8.16825C3.84353 8.47173 3.76151 8.87637 3.45803 9.07869ZM15.2692 7.98781L16.5815 8.8627C16.8823 9.06502 16.9643 9.4724 16.7647 9.77315C16.5651 10.0739 16.155 10.1559 15.8542 9.95633L14.5419 9.08143C14.2412 8.87911 14.1591 8.47173 14.3587 8.17099C14.5583 7.87024 14.9684 7.78822 15.2692 7.98781ZM12.5324 8.14365C11.991 8.88458 11.4469 9.63097 11.1872 10.5004H6.81272C6.55025 9.62824 6.00617 8.88458 5.46756 8.14365C5.32539 7.94953 5.18322 7.75541 5.04651 7.55856C4.50517 6.77935 4.18802 5.83337 4.18802 4.81356C4.18802 2.15606 6.34246 0.00161993 8.99996 0.00161993C11.6575 0.00161993 13.8119 2.15606 13.8119 4.81356C13.8119 5.83337 13.4948 6.77935 12.9534 7.55582C12.8167 7.75268 12.6745 7.94679 12.5324 8.14091V8.14365ZM11.1872 11.8128C11.1872 13.0212 10.2084 14 8.99996 14C7.79151 14 6.81272 13.0212 6.81272 11.8128V11.3753H11.1872V11.8128ZM8.99996 2.62632C9.24056 2.62632 9.43741 2.42946 9.43741 2.18887C9.43741 1.94827 9.24056 1.75142 8.99996 1.75142C7.30758 1.75142 5.93782 3.12118 5.93782 4.81356C5.93782 5.05416 6.13467 5.25101 6.37527 5.25101C6.61586 5.25101 6.81272 5.05416 6.81272 4.81356C6.81272 3.60511 7.79151 2.62632 8.99996 2.62632Z" fill="#191919"/>
</svg>
