<svg width="8" height="11" viewBox="0 0 8 11" fill="none" xmlns="http://www.w3.org/2000/svg">
<path d="M6.8731 5.46913L2.42238 1.01841C2.3193 0.915331 2.17949 0.857422 2.03371 0.857422C1.88793 0.857422 1.74813 0.915331 1.64504 1.01841L1.12607 1.53739C1.02333 1.64042 0.965646 1.77999 0.965646 1.92549C0.965646 2.07099 1.02333 2.21055 1.12607 2.31359L4.65323 5.85742L1.12607 9.40126C1.02333 9.50429 0.965646 9.64386 0.965646 9.78936C0.965646 9.93486 1.02333 10.0744 1.12607 10.1775L1.64504 10.6964C1.74813 10.7995 1.88793 10.8574 2.03371 10.8574C2.17949 10.8574 2.3193 10.7995 2.42238 10.6964L6.8731 6.24647C6.97618 6.14339 7.03409 6.00358 7.03409 5.8578C7.03409 5.71202 6.97618 5.57222 6.8731 5.46913Z" fill="#191919"/>
</svg>
