<svg width="16" height="16" viewBox="0 0 16 16" fill="none" xmlns="http://www.w3.org/2000/svg">
<path d="M8 0C12.3871 0 16 3.6129 16 8C16 12.4194 12.3871 16 8 16C3.58065 16 0 12.4194 0 8C0 3.6129 3.58065 0 8 0ZM8 14.4516C11.5484 14.4516 14.4516 11.5806 14.4516 8C14.4516 4.45161 11.5484 1.54839 8 1.54839C4.41935 1.54839 1.54839 4.45161 1.54839 8C1.54839 11.5806 4.41935 14.4516 8 14.4516ZM9.35484 11.0968C9.35484 11.871 8.74193 12.4516 8 12.4516C7.22581 12.4516 6.64516 11.871 6.64516 11.0968C6.64516 10.3548 7.22581 9.74193 8 9.74193C8.74193 9.74193 9.35484 10.3548 9.35484 11.0968ZM6.70968 4.29032C6.70968 4.06452 6.87097 3.87097 7.09677 3.87097H8.87097C9.09677 3.87097 9.25806 4.06452 9.25806 4.29032L9.03226 8.67742C9.03226 8.87097 8.83871 9.03226 8.64516 9.03226H7.32258C7.12903 9.03226 6.93548 8.87097 6.93548 8.67742L6.70968 4.29032Z" fill="#CC2F2F"/>
</svg>
