<svg width="14" height="14" viewBox="0 0 14 14" fill="none" xmlns="http://www.w3.org/2000/svg">
<path d="M10.0625 3.5C10.1321 3.5 10.1988 3.52792 10.248 3.57715C10.2972 3.62637 10.3252 3.69312 10.3252 3.7627V4.8125C10.3252 4.87724 10.3011 4.94012 10.2578 4.98828L7.96289 7.53809V10.0625C7.96285 10.1175 7.94524 10.1712 7.91309 10.2158C7.8809 10.2604 7.83538 10.2941 7.7832 10.3115L6.20801 10.8359C6.16857 10.8491 6.12606 10.8529 6.08496 10.8467C6.04403 10.8404 6.00528 10.824 5.97168 10.7998C5.93805 10.7755 5.91053 10.7439 5.8916 10.707C5.8727 10.6702 5.8624 10.6293 5.8623 10.5879V7.53809L3.56738 4.98828C3.52413 4.94012 3.50001 4.87724 3.5 4.8125V3.7627C3.5 3.69308 3.52792 3.62638 3.57715 3.57715C3.62638 3.52792 3.69308 3.5 3.7627 3.5H10.0625Z" fill="#8C1D40"/>
</svg>
