<svg width="14" height="15" viewBox="0 0 14 15" fill="none" xmlns="http://www.w3.org/2000/svg">
<path d="M7.79883 11.6102C7.79883 11.4657 7.88939 11.3362 8.02524 11.2851L9.73084 10.6469L10.3708 8.9461C10.4221 8.81064 10.552 8.72034 10.6969 8.72034C10.8418 8.72034 10.9716 8.81064 11.0229 8.9461L11.6629 10.6469L13.3685 11.2851C13.5043 11.3362 13.5949 11.4657 13.5949 11.6102C13.5949 11.7547 13.5043 11.8841 13.3685 11.9353L11.6629 12.5734L11.0229 14.2742C10.9716 14.4097 10.8418 14.5 10.6969 14.5C10.552 14.5 10.4221 14.4097 10.3708 14.2742L9.73084 12.5734L8.02524 11.9353C7.88939 11.8841 7.79883 11.7547 7.79883 11.6102Z" fill="#191919"/>
<path d="M0 7.02969C0 6.83367 0.12286 6.65807 0.307149 6.58865L2.621 5.7229L3.48921 3.41559C3.55883 3.23183 3.73493 3.10931 3.9315 3.10931C4.12808 3.10931 4.30418 3.23183 4.3738 3.41559L5.242 5.7229L7.55586 6.58865C7.74015 6.65807 7.86301 6.83367 7.86301 7.02969C7.86301 7.22571 7.74015 7.40131 7.55586 7.47073L5.242 8.33648L4.3738 10.6438C4.30418 10.8276 4.12808 10.9501 3.9315 10.9501C3.73493 10.9501 3.55883 10.8276 3.48921 10.6438L2.621 8.33648L0.307149 7.47073C0.12286 7.40131 0 7.22571 0 7.02969Z" fill="#191919"/>
<path d="M8.375 3.10363C8.375 2.97345 8.45659 2.85683 8.57899 2.81072L10.1157 2.23575L10.6923 0.703409C10.7385 0.581364 10.8555 0.5 10.986 0.5C11.1166 0.5 11.2335 0.581364 11.2798 0.703409L11.8564 2.23575L13.3931 2.81072C13.5154 2.85683 13.597 2.97345 13.597 3.10363C13.597 3.23381 13.5154 3.35043 13.3931 3.39654L11.8564 3.97151L11.2798 5.50385C11.2335 5.6259 11.1166 5.70726 10.986 5.70726C10.8555 5.70726 10.7385 5.6259 10.6923 5.50385L10.1157 3.97151L8.57899 3.39654C8.45659 3.35043 8.375 3.23381 8.375 3.10363Z" fill="#191919"/>
</svg>
