<svg width="23" height="19" viewBox="0 0 23 19" fill="none" xmlns="http://www.w3.org/2000/svg">
<path d="M3.66537 2.12684L5.1652 3.12672C5.50891 3.35794 5.60265 3.82352 5.37455 4.16723C5.14645 4.51094 4.67776 4.60468 4.33405 4.37658L2.83422 3.37669C2.49051 3.14547 2.39677 2.6799 2.62487 2.33619C2.85297 1.99248 3.32166 1.89874 3.66537 2.12684ZM20.1635 3.37669L18.6636 4.37658C18.3199 4.6078 17.8544 4.51406 17.6231 4.16723C17.3919 3.82039 17.4857 3.35794 17.8325 3.12672L19.3323 2.12684C19.676 1.89561 20.1416 1.98935 20.3728 2.33619C20.604 2.68302 20.5103 3.14547 20.1635 3.37669ZM2.24991 7.00127H4.24968C4.66526 7.00127 4.99959 7.33561 4.99959 7.75119C4.99959 8.16676 4.66526 8.5011 4.24968 8.5011H2.24991C1.83434 8.5011 1.5 8.16676 1.5 7.75119C1.5 7.33561 1.83434 7.00127 2.24991 7.00127ZM18.748 7.00127H20.7478C21.1633 7.00127 21.4977 7.33561 21.4977 7.75119C21.4977 8.16676 21.1633 8.5011 20.7478 8.5011H18.748C18.3324 8.5011 17.9981 8.16676 17.9981 7.75119C17.9981 7.33561 18.3324 7.00127 18.748 7.00127ZM5.1652 12.3757L3.66537 13.3755C3.32166 13.6068 2.85609 13.513 2.62487 13.1662C2.39365 12.8193 2.48739 12.3569 2.83422 12.1257L4.33405 11.1258C4.67776 10.8946 5.14333 10.9883 5.37455 11.3351C5.60577 11.682 5.51204 12.1444 5.1652 12.3757ZM18.6636 11.1289L20.1635 12.1288C20.5072 12.36 20.6009 12.8256 20.3728 13.1693C20.1447 13.513 19.676 13.6068 19.3323 13.3787L17.8325 12.3788C17.4888 12.1476 17.395 11.682 17.6231 11.3383C17.8512 10.9946 18.3199 10.9008 18.6636 11.1289ZM15.5359 11.307C14.9172 12.1538 14.2954 13.0068 13.9986 14.0005H8.99913C8.69917 13.0037 8.07736 12.1538 7.46181 11.307C7.29933 11.0852 7.13685 10.8633 6.98062 10.6384C6.36194 9.74783 5.99948 8.6667 5.99948 7.50121C5.99948 4.46407 8.46169 2.00185 11.4988 2.00185C14.536 2.00185 16.9982 4.46407 16.9982 7.50121C16.9982 8.6667 16.6357 9.74783 16.0171 10.6352C15.8608 10.8602 15.6984 11.0821 15.5359 11.3039V11.307ZM13.9986 15.5003C13.9986 16.8814 12.8799 18 11.4988 18C10.1178 18 8.99913 16.8814 8.99913 15.5003V15.0003H13.9986V15.5003ZM11.4988 5.0015C11.7738 5.0015 11.9988 4.77653 11.9988 4.50156C11.9988 4.22659 11.7738 4.00162 11.4988 4.00162C9.56469 4.00162 7.99925 5.56706 7.99925 7.50121C7.99925 7.77618 8.22422 8.00116 8.49919 8.00116C8.77416 8.00116 8.99913 7.77618 8.99913 7.50121C8.99913 6.12012 10.1178 5.0015 11.4988 5.0015Z" fill="white"/>
</svg>
