<svg width="20" height="16" viewBox="0 0 20 16" fill="none" xmlns="http://www.w3.org/2000/svg">
<path d="M1.656 0.0550008C1.419 -0.0699844 1.131 0.0331284 1.011 0.279974C0.891 0.52682 0.99 0.826785 1.227 0.95177L3.147 1.95165C3.384 2.07664 3.672 1.97353 3.792 1.72668C3.912 1.47983 3.813 1.17987 3.576 1.05488L1.656 0.0550008ZM17.976 0.948646C18.213 0.82366 18.309 0.523696 18.192 0.27685C18.075 0.0300038 17.784 -0.0699845 17.547 0.0518762L15.627 1.05176C15.39 1.17674 15.294 1.47671 15.411 1.72355C15.528 1.9704 15.819 2.07039 16.056 1.94853L17.976 0.948646ZM0.48 5.00129C0.216 5.00129 0 5.22627 0 5.50124C0 5.7762 0.216 6.00118 0.48 6.00118H2.4C2.664 6.00118 2.88 5.7762 2.88 5.50124C2.88 5.22627 2.664 5.00129 2.4 5.00129H0.48ZM16.8 5.00129C16.536 5.00129 16.32 5.22627 16.32 5.50124C16.32 5.7762 16.536 6.00118 16.8 6.00118H18.72C18.984 6.00118 19.2 5.7762 19.2 5.50124C19.2 5.22627 18.984 5.00129 18.72 5.00129H16.8ZM3.576 9.94759C3.813 9.8226 3.909 9.52264 3.792 9.27579C3.675 9.02894 3.384 8.92896 3.147 9.05082L1.227 10.0507C0.99 10.1757 0.894 10.4756 1.011 10.7225C1.128 10.9693 1.419 11.0693 1.656 10.9475L3.576 9.94759ZM16.056 9.05394C15.819 8.92896 15.531 9.03207 15.411 9.27892C15.291 9.52576 15.39 9.82573 15.627 9.95071L17.547 10.9506C17.784 11.0756 18.072 10.9725 18.192 10.7256C18.312 10.4788 18.213 10.1788 17.976 10.0538L16.056 9.05394ZM13.92 5.50124C13.92 6.45737 13.635 7.33852 13.149 8.06656C13.026 8.25091 12.888 8.45089 12.741 8.66024C12.36 9.20705 11.928 9.8226 11.601 10.4444C11.334 10.9506 11.19 11.4849 11.115 12.0036H12.087C12.153 11.6286 12.264 11.2631 12.441 10.9256C12.738 10.3632 13.107 9.8351 13.476 9.30704C13.632 9.08519 13.788 8.86334 13.938 8.63837C14.532 7.74785 14.88 6.66985 14.88 5.50436C14.88 2.46409 12.516 0.0018821 9.6 0.0018821C6.684 0.0018821 4.32 2.46409 4.32 5.50124C4.32 6.66672 4.668 7.74785 5.262 8.63524C5.412 8.86021 5.568 9.08206 5.724 9.30391C6.093 9.82885 6.462 10.3569 6.759 10.9225C6.936 11.2599 7.047 11.6255 7.113 12.0005H8.085C8.01 11.4818 7.866 10.9475 7.599 10.4413C7.272 9.81635 6.84 9.2008 6.459 8.65711C6.312 8.44776 6.174 8.25091 6.051 8.06343C5.565 7.33852 5.28 6.45737 5.28 5.50124C5.28 3.01715 7.215 1.00176 9.6 1.00176C11.985 1.00176 13.92 3.01715 13.92 5.50124ZM7.2 5.50124C7.2 4.12015 8.274 3.00153 9.6 3.00153C9.864 3.00153 10.08 2.77656 10.08 2.50159C10.08 2.22662 9.864 2.00165 9.6 2.00165C7.743 2.00165 6.24 3.56709 6.24 5.50124C6.24 5.7762 6.456 6.00118 6.72 6.00118C6.984 6.00118 7.2 5.7762 7.2 5.50124ZM9.6 15.0001C8.973 15.0001 8.439 14.5814 8.241 14.0002H10.956C10.758 14.5814 10.224 15.0001 9.597 15.0001H9.6ZM7.2 13.3347V13.5003C7.2 14.8814 8.274 16 9.6 16C10.926 16 12 14.8814 12 13.5003V13.3347C12 13.1503 11.856 13.0004 11.679 13.0004H7.518C7.341 13.0004 7.197 13.1503 7.197 13.3347H7.2Z" fill="#FAFAFA"/>
</svg>
